<svg width="41" height="33" viewBox="0 0 41 33" fill="none" xmlns="http://www.w3.org/2000/svg">
<g filter="url(#filter0_d_476_619)">
<rect x="8" y="4" width="25" height="25" rx="5" fill="#FFCD40" shape-rendering="crispEdges"/>
<path d="M10.1566 9.8H13.7366L15.0366 14.18L16.3566 9.8H19.9366L17.5366 16.58L18.5566 19.48L21.6166 9.8H25.8566L20.4966 24H17.1166L15.0366 18.92L12.9766 24H9.59656L4.23656 9.8H8.45656L11.5366 19.48L12.5166 16.58L10.1566 9.8ZM33.9997 14.44C33.9997 14.44 33.8864 14.3733 33.6597 14.24C33.433 14.1067 33.133 13.96 32.7597 13.8C32.3864 13.6267 31.9797 13.4733 31.5397 13.34C31.0997 13.2067 30.6664 13.14 30.2397 13.14C29.9064 13.14 29.633 13.1933 29.4197 13.3C29.2064 13.4067 29.0997 13.5867 29.0997 13.84C29.0997 14.08 29.2064 14.2733 29.4197 14.42C29.633 14.5667 29.933 14.7 30.3197 14.82C30.7197 14.94 31.193 15.0867 31.7397 15.26C32.6197 15.5267 33.3797 15.8333 34.0197 16.18C34.6597 16.5267 35.153 16.9733 35.4997 17.52C35.8464 18.0533 36.0197 18.7667 36.0197 19.66C36.0197 20.5133 35.8664 21.2333 35.5597 21.82C35.253 22.3933 34.8397 22.8533 34.3197 23.2C33.7997 23.5467 33.2197 23.8 32.5797 23.96C31.9397 24.1067 31.2864 24.18 30.6197 24.18C29.9397 24.18 29.2264 24.1133 28.4797 23.98C27.7464 23.8333 27.033 23.64 26.3397 23.4C25.6464 23.1467 25.013 22.8533 24.4397 22.52L26.1197 19.1C26.1197 19.1 26.253 19.18 26.5197 19.34C26.7864 19.5 27.1397 19.68 27.5797 19.88C28.0197 20.08 28.5064 20.26 29.0397 20.42C29.5864 20.58 30.133 20.66 30.6797 20.66C31.1064 20.66 31.3997 20.6067 31.5597 20.5C31.733 20.38 31.8197 20.2267 31.8197 20.04C31.8197 19.76 31.673 19.5467 31.3797 19.4C31.0864 19.24 30.6997 19.0933 30.2197 18.96C29.753 18.8133 29.233 18.6467 28.6597 18.46C27.833 18.18 27.153 17.8667 26.6197 17.52C26.0864 17.16 25.693 16.74 25.4397 16.26C25.1864 15.7667 25.0597 15.1733 25.0597 14.48C25.0597 13.4267 25.3064 12.5467 25.7997 11.84C26.293 11.1333 26.9397 10.6 27.7397 10.24C28.553 9.86667 29.4264 9.68 30.3597 9.68C31.053 9.68 31.7197 9.76667 32.3597 9.94C33.013 10.1 33.6197 10.3 34.1797 10.54C34.753 10.78 35.253 11.0067 35.6797 11.22L33.9997 14.44ZM31.6597 9.2L29.2597 8.56L30.2597 5.72H33.6397L31.6597 9.2Z" fill="#1F1E28"/>
</g>
<defs>
<filter id="filter0_d_476_619" x="0.236572" y="0" width="39.7832" height="33" filterUnits="userSpaceOnUse" color-interpolation-filters="sRGB">
<feFlood flood-opacity="0" result="BackgroundImageFix"/>
<feColorMatrix in="SourceAlpha" type="matrix" values="0 0 0 0 0 0 0 0 0 0 0 0 0 0 0 0 0 0 127 0" result="hardAlpha"/>
<feOffset/>
<feGaussianBlur stdDeviation="2"/>
<feComposite in2="hardAlpha" operator="out"/>
<feColorMatrix type="matrix" values="0 0 0 0 0 0 0 0 0 0 0 0 0 0 0 0 0 0 0.25 0"/>
<feBlend mode="normal" in2="BackgroundImageFix" result="effect1_dropShadow_476_619"/>
<feBlend mode="normal" in="SourceGraphic" in2="effect1_dropShadow_476_619" result="shape"/>
</filter>
</defs>
</svg>
