<svg width="980" height="980" viewBox="0 0 980 980" fill="none" xmlns="http://www.w3.org/2000/svg">
<g clip-path="url(#clip0_3511_217)">
<path d="M122.5 0H0V122.5H122.5V0Z" fill="#ABABAB"/>
<path d="M245 122.5H122.5V245H245V122.5Z" fill="#ABABAB"/>
<path d="M122.5 245V122.5H61.25H0V245H122.5Z" fill="#FBBC05"/>
<path d="M245 0H122.5V122.5H245V0Z" fill="#FBBC05"/>
<path d="M367.5 0H245V122.5H367.5V0Z" fill="#ABABAB"/>
<path d="M490 122.5H367.5V245H490V122.5Z" fill="#ABABAB"/>
<path d="M367.5 122.5H245V245H367.5V122.5Z" fill="#FBBC05"/>
<path d="M490 0H367.5V122.5H490V0Z" fill="#FBBC05"/>
<path d="M612.5 0H490V122.5H612.5V0Z" fill="#ABABAB"/>
<path d="M735 122.5H612.5V245H735V122.5Z" fill="#ABABAB"/>
<path d="M612.5 122.5H490V245H612.5V122.5Z" fill="#FBBC05"/>
<path d="M735 0H612.5V122.5H735V0Z" fill="#FBBC05"/>
<path d="M857.5 0H735V122.5H857.5V0Z" fill="#ABABAB"/>
<path d="M980 122.5H857.5V245H980V122.5Z" fill="#ABABAB"/>
<path d="M857.5 122.5H735V245H857.5V122.5Z" fill="#FBBC05"/>
<path d="M980 0H857.5V122.5H980V0Z" fill="#FBBC05"/>
<path d="M122.5 245H0V367.5H122.5V245Z" fill="#ABABAB"/>
<path d="M245 367.5H122.5V490H245V367.5Z" fill="#ABABAB"/>
<path d="M122.5 367.5H0V490H122.5V367.5Z" fill="#FBBC05"/>
<path d="M245 245H122.5V367.5H245V245Z" fill="#FBBC05"/>
<path d="M367.5 245H245V367.5H367.5V245Z" fill="#ABABAB"/>
<path d="M490 367.5H367.5V490H490V367.5Z" fill="#ABABAB"/>
<path d="M367.5 367.5H245V490H367.5V367.5Z" fill="#FBBC05"/>
<path d="M490 245H367.5V367.5H490V245Z" fill="#FBBC05"/>
<path d="M612.5 245H490V367.5H612.5V245Z" fill="#ABABAB"/>
<path d="M735 367.5H612.5V490H735V367.5Z" fill="#ABABAB"/>
<path d="M612.5 367.5H490V490H612.5V367.5Z" fill="#FBBC05"/>
<path d="M735 245H612.5V367.5H735V245Z" fill="#FBBC05"/>
<path d="M857.5 245H735V367.5H857.5V245Z" fill="#ABABAB"/>
<path d="M980 367.5H857.5V490H980V367.5Z" fill="#ABABAB"/>
<path d="M857.5 367.5H735V490H857.5V367.5Z" fill="#FBBC05"/>
<path d="M980 245H857.5V367.5H980V245Z" fill="#FBBC05"/>
<path d="M122.5 490H0V612.5H122.5V490Z" fill="#ABABAB"/>
<path d="M245 612.5H122.5V735H245V612.5Z" fill="#ABABAB"/>
<path d="M122.5 612.5H0V735H122.5V612.5Z" fill="#FBBC05"/>
<path d="M245 490H122.5V612.5H245V490Z" fill="#FBBC05"/>
<path d="M367.5 490H245V612.5H367.5V490Z" fill="#ABABAB"/>
<path d="M490 612.5H367.5V735H490V612.5Z" fill="#ABABAB"/>
<path d="M367.5 612.5H245V735H367.5V612.5Z" fill="#FBBC05"/>
<path d="M490 490H367.5V612.5H490V490Z" fill="#FBBC05"/>
<path d="M612.5 490H490V612.5H612.5V490Z" fill="#ABABAB"/>
<path d="M735 612.5H612.5V735H735V612.5Z" fill="#ABABAB"/>
<path d="M612.5 612.5H490V735H612.5V612.5Z" fill="#FBBC05"/>
<path d="M735 490H612.5V612.5H735V490Z" fill="#FBBC05"/>
<path d="M857.5 490H735V612.5H857.5V490Z" fill="#ABABAB"/>
<path d="M980 612.5H857.5V735H980V612.5Z" fill="#ABABAB"/>
<path d="M857.5 612.5H735V735H857.5V612.5Z" fill="#FBBC05"/>
<path d="M980 490H857.5V612.5H980V490Z" fill="#FBBC05"/>
<path d="M122.5 735H0V857.5H122.5V735Z" fill="#ABABAB"/>
<path d="M245 857.5H122.5V980H245V857.5Z" fill="#ABABAB"/>
<path d="M122.5 857.5H0V980H122.5V857.5Z" fill="#FBBC05"/>
<path d="M245 735H122.5V857.5H245V735Z" fill="#FBBC05"/>
<path d="M367.5 735H245V857.5H367.5V735Z" fill="#ABABAB"/>
<path d="M490 857.5H367.5V980H490V857.5Z" fill="#ABABAB"/>
<path d="M367.5 857.5H245V980H367.5V857.5Z" fill="#FBBC05"/>
<path d="M490 735H367.5V857.5H490V735Z" fill="#FBBC05"/>
<path d="M612.5 735H490V857.5H612.5V735Z" fill="#ABABAB"/>
<path d="M735 857.5H612.5V980H735V857.5Z" fill="#ABABAB"/>
<path d="M612.5 857.5H490V980H612.5V857.5Z" fill="#FBBC05"/>
<path d="M735 735H612.5V857.5H735V735Z" fill="#FBBC05"/>
<path d="M857.5 735H735V857.5H857.5V735Z" fill="#ABABAB"/>
<path d="M980 857.5H857.5V980H980V857.5Z" fill="#ABABAB"/>
<path d="M857.5 857.5H735V980H857.5V857.5Z" fill="#FBBC05"/>
<path d="M980 735H857.5V857.5H980V735Z" fill="#FBBC05"/>
</g>
<defs>
<clipPath id="clip0_3511_217">
<rect width="980" height="980" fill="white"/>
</clipPath>
</defs>
</svg>
