<svg width="18" height="18" viewBox="0 0 18 18" fill="none" xmlns="http://www.w3.org/2000/svg">
<path d="M3.11151 14.4721C3.28105 13.9636 3.75699 13.6206 4.2931 13.6206H13.7072C14.2432 13.6206 14.7191 13.9636 14.8887 14.4721L15.8503 17.357H2.1499L3.11151 14.4721Z" stroke="#FFCD40" stroke-linecap="round" stroke-linejoin="round"/>
<path d="M4.59212 13.6208C4.79634 12.5543 6.27121 11.3291 7.31502 10.5122C9.81565 8.55525 9.58395 6.88167 9.1755 6.42787L6.67633 7.85595C6.08238 8.19535 5.33772 8.11548 4.82926 7.65785C4.26883 7.15344 4.14122 6.32407 4.52411 5.6745L6.40728 2.47975L5.68119 0.846041C6.87621 0.422488 10.1831 0.646457 11.49 1.66299C13.1238 2.93364 15.2113 4.86239 13.4867 13.6208" stroke="#FFCD40" stroke-linecap="round" stroke-linejoin="round"/>
<path d="M9.99403 5.10645C9.84926 5.73376 9.49604 6.16866 9.18213 6.42979" stroke="#FFCD40" stroke-linecap="round" stroke-linejoin="round"/>
</svg>
