<svg width="28" height="25" viewBox="0 0 28 25" fill="none" xmlns="http://www.w3.org/2000/svg">
<path d="M24.5 17.1954V6.40968C24.5 6.10219 24.1985 5.88527 23.9069 5.98302L18.7825 7.70119C18.7066 7.72661 18.6254 7.73137 18.5471 7.71496L9.45288 5.80923C9.3746 5.79283 9.29336 5.79758 9.21753 5.82301L3.80695 7.6371C3.62358 7.69858 3.5 7.87035 3.5 8.06376V18.8495C3.5 19.157 3.80152 19.3739 4.09305 19.2762L9.21753 17.558C9.29336 17.5326 9.3746 17.5278 9.45288 17.5442L18.5471 19.45C18.6254 19.4664 18.7066 19.4616 18.7825 19.4362L24.1931 17.6221C24.3764 17.5606 24.5 17.3888 24.5 17.1954Z" stroke="#FFCD40" stroke-linejoin="round"/>
<path d="M18.6667 19.4747V7.73975" stroke="#FFCD40"/>
<path d="M9.33325 17.5192L9.33325 5.78418" stroke="#FFCD40"/>
</svg>
