<svg width="25" height="17" viewBox="0 0 25 17" fill="none" xmlns="http://www.w3.org/2000/svg">
<path d="M0.5 2C0.5 1.17157 1.17157 0.5 2 0.5H23C23.8284 0.5 24.5 1.17157 24.5 2V14.13C24.5 14.9584 23.8284 15.63 23 15.63H2C1.17157 15.63 0.5 14.9584 0.5 14.13V2Z" stroke="#FFCD40"/>
<path d="M0.5 12.0977H2.5C3.05228 12.0977 3.5 11.6499 3.5 11.0977L3.5 5.03266C3.5 4.48037 3.05228 4.03266 2.5 4.03266H0.5" stroke="#FFCD40"/>
<path d="M24.5 4.03223H22.5C21.9477 4.03223 21.5 4.47994 21.5 5.03223V11.0972C21.5 11.6495 21.9477 12.0972 22.5 12.0972H24.5" stroke="#FFCD40"/>
<path d="M12.5 15.1138V8.05689V1.00002" stroke="#FFCD40" stroke-linecap="round"/>
<path d="M15.0007 8.0566C15.0007 9.4546 13.8776 10.581 12.5007 10.581C11.1238 10.581 10.0007 9.4546 10.0007 8.0566C10.0007 6.65861 11.1238 5.53223 12.5007 5.53223C13.8776 5.53223 15.0007 6.65861 15.0007 8.0566Z" stroke="#FFCD40"/>
</svg>
